#!OML:ASF I:\golf\golf\golf 2\Subject 1\2002-09-07\Subject1.ASF
:FULLY-SPECIFIED
:DEGREES
272
root -5.91147 17.8051 2.47658 4.79584 43.0836 -10.7498
lowerback 4.69805 -9.5577 -12.6059
upperback 0.448223 -13.2832 -2.04856
thorax 0.198542 -6.59194 4.99198
lowerneck -6.68349 21.8674 0.190127
upperneck 14.6575 32.271 -13.0997
head 7.89761 14.4295 -0.905792
rclavicle -2.82274e-014 -5.725e-014
rhumerus 29.7794 -23.6393 -60.6091
rradius 102.34
rwrist -8.1356
rhand -62.7634 20.8209
rfingers 7.12502
rthumb -34.7784 -5.78658
lclavicle -2.82274e-014 -5.725e-014
lhumerus 108.863 -42.2137 47.4785
lradius 33.4898
lwrist 1.24801
lhand -18.9009 4.69783
lfingers 7.12502
lthumb -172.599 214.548
rfemur -34.5783 13.9835 23.0953
rtibia 30.1903
rfoot -1.95321 23.3139
rtoes 25.9287
lfemur -11.0143 25.4966 1.52383
ltibia 35.5542
lfoot 6.33523 16.0551
ltoes -36.6033
273
root -5.92224 17.8235 2.41132 4.96792 43.9584 -10.8265
lowerback 4.90248 -9.65649 -12.5137
upperback 0.611923 -13.4281 -1.72461
thorax 0.343378 -6.68587 5.28184
lowerneck -7.14038 21.866 -0.444235
upperneck 14.6494 32.3286 -13.0261
head 7.86536 14.4139 -0.781566
rclavicle -1.32391e-013 -7.63333e-014
rhumerus 29.8473 -22.8827 -61.3378
rradius 101.963
rwrist -9.10828
rhand -62.6181 20.3149
rfingers 7.12502
rthumb -34.6405 -6.32435
lclavicle -1.32391e-013 -7.63333e-014
lhumerus 107.882 -42.2713 48.091
lradius 32.9094
lwrist 0.907786
lhand -18.669 4.98602
lfingers 7.12502
lthumb -172.375 214.829
rfemur -35.0173 13.5654 22.8384
rtibia 30.2594
rfoot -2.44766 22.7247
rtoes 24.5638
lfemur -11.4512 24.7076 1.05461
ltibia 35.4937
lfoot 0.850026 19.244
ltoes -23.0251
274
root -5.93118 17.8252 2.34369 5.3078 44.8588 -10.6818
lowerback 4.983 -9.72494 -12.5967
upperback 0.821668 -13.5168 -1.44805
thorax 0.624954 -6.76076 5.58172
lowerneck -7.6526 21.815 -0.855517
upperneck 14.805 32.3733 -13.08
head 7.95436 14.3702 -0.688854
rclavicle 8.74653e-015 5.725e-014
rhumerus 29.915 -22.1591 -62.0642
rradius 101.51
rwrist -9.96866
rhand -62.433 19.5061
rfingers 7.12502
rthumb -34.4649 -7.17321
lclavicle 8.74653e-015 5.725e-014
lhumerus 107.05 -42.3119 48.542
lradius 32.4108
lwrist 0.910348
lhand -18.2096 5.31977
lfingers 7.12502
lthumb -171.932 215.146
rfemur -35.4856 13.0004 22.416
rtibia 30.3235
rfoot -3.01315 22.2604
rtoes 22.5401
lfemur -12.2292 24.5766 0.223079
ltibia 35.3987
lfoot -2.35196 20.5184
ltoes -14.9357
275
root -5.94018 17.8211 2.273 5.48595 45.811 -10.7027
lowerback 5.07306 -9.67995 -12.5441
upperback 1.00987 -13.4524 -1.28466
thorax 0.791953 -6.74993 5.71705
lowerneck -7.75691 21.6376 -0.582773
upperneck 15.1202 32.2035 -13.194
head 8.13008 14.259 -0.726556
rclavicle 1.00187e-013 3.18055e-015
rhumerus 29.4688 -21.6526 -62.5826
rradius 101.035
rwrist -10.7424
rhand -62.5444 18.9267
rfingers 7.12502
rthumb -34.5706 -7.72857
lclavicle 1.00187e-013 3.18055e-015
lhumerus 106.199 -42.8347 48.8885
lradius 32.105
lwrist 0.794334
lhand -18.1597 5.45191
lfingers 7.12502
lthumb -171.884 215.276
rfemur -35.8776 12.49 22.1011
rtibia 30.3321
rfoot -3.46852 21.6245
rtoes 20.2212
lfemur -13.1443 24.7692 -0.567163
ltibia 35.2844
lfoot -3.85466 21.3546
ltoes -13.365
276
root -5.95142 17.815 2.19577 5.4621 46.9084 -11.0593
lowerback 5.20848 -9.54371 -12.1684
upperback 1.11003 -13.2672 -1.18524
thorax 0.728696 -6.65999 5.65861
lowerneck -7.33541 21.2861 0.291597
upperneck 15.4277 31.716 -13.3791
head 8.29564 14.055 -0.93511
rclavicle 7.87187e-014 2.8625e-014
rhumerus 28.3688 -21.4717 -62.8146
rradius 100.601
rwrist -11.7263
rhand -62.7034 18.8295
rfingers 7.12502
rthumb -34.7216 -7.79118
lclavicle 7.87187e-014 2.8625e-014
lhumerus 105.538 -43.7977 49.0652
lradius 31.7526
lwrist 0.632571
lhand -18.0376 5.72347
lfingers 7.12502
lthumb -171.766 215.543
rfemur -36.3949 11.9256 22.0102
rtibia 30.4726
rfoot -3.97241 20.9119
rtoes 17.9965
lfemur -14.106 24.7024 -1.11972
ltibia 35.0744
lfoot -5.41651 22.0632
ltoes -12.0694
277
root -5.96428 17.8092 2.11956 5.63905 48.0916 -11.2627
lowerback 5.19405 -9.33924 -11.8696
upperback 1.19118 -12.9738 -1.15794
thorax 0.709366 -6.51589 5.54238
lowerneck -6.78264 20.829 1.35769
upperneck 15.7329 31.052 -13.5301
head 8.4421 13.7933 -1.19797
rclavicle 6.36111e-014 4.13472e-014
rhumerus 27.0332 -21.5883 -63.0993
rradius 100.133
rwrist -12.566
rhand -62.7813 19.0639
rfingers 7.12502
rthumb -34.7955 -7.53968
lclavicle 6.36111e-014 4.13472e-014
lhumerus 105.345 -44.9164 48.8448
lradius 31.3242
lwrist 0.842433
lhand -17.7227 6.24935
lfingers 7.12502
lthumb -171.462 216.057
rfemur -37.0518 11.4279 21.7148
rtibia 30.6369
rfoot -4.27366 20.0081
rtoes 16.6574
lfemur -15.2477 24.6947 -1.84529
ltibia 34.8554
lfoot -6.15247 22.5714
ltoes -12.8923
278
root -5.97581 17.8082 2.04922 5.90519 49.314 -11.3676
lowerback 4.98957 -9.1312 -11.628
upperback 1.36429 -12.6443 -1.15261
thorax 0.895538 -6.36773 5.38552
lowerneck -6.40841 20.3714 2.32491
upperneck 15.9553 30.3922 -13.6921
head 8.5714 13.5274 -1.44737
rclavicle 1.06549e-013 4.13472e-014
rhumerus 25.8514 -21.8339 -63.5872
rradius 99.6934
rwrist -13.3406
rhand -62.8033 19.2302
rfingers 7.12502
rthumb -34.8163 -7.36855
lclavicle 1.06549e-013 4.13472e-014
lhumerus 105.298 -46.0018 48.4415
lradius 30.9261
lwrist 1.09118
lhand -17.5202 6.78005
lfingers 7.12502
lthumb -171.267 216.579
rfemur -37.7033 11.1119 21.2493
rtibia 30.8017
rfoot -4.62 18.8976
rtoes 14.9135
lfemur -16.5839 25.0356 -2.76089
ltibia 34.6627
lfoot -5.79079 23.1482
ltoes -16.0689
279
root -5.98893 17.8042 1.97883 5.9249 50.6203 -11.7515
lowerback 4.82632 -8.99988 -11.265
upperback 1.59275 -12.4176 -0.968457
thorax 1.15211 -6.27939 5.34444
lowerneck -6.44477 19.9818 2.86069
upperneck 16.2455 29.8767 -13.7686
head 8.72373 13.2866 -1.5735
rclavicle 9.22361e-014 1.27222e-014
rhumerus 24.9752 -21.8322 -64.1133
rradius 99.2349
rwrist -14.2222
rhand -62.8684 19.2259
rfingers 7.12502
rthumb -34.8781 -7.35859
lclavicle 9.22361e-014 1.27222e-014
lhumerus 104.937 -46.8448 48.3751
lradius 30.4669
lwrist 1.0033
lhand -17.4309 7.04868
lfingers 7.12502
lthumb -171.18 216.844
rfemur -38.3078 10.7334 20.9845
rtibia 30.9684
rfoot -4.96508 17.8529
rtoes 13.1252
lfemur -17.9076 25.1509 -3.46439
ltibia 34.4853
lfoot -6.04493 23.8394
ltoes -16.706
280
root -6.00459 17.7972 1.90472 5.93663 52.0425 -12.1032
lowerback 4.82938 -8.98529 -10.9793
upperback 1.8131 -12.3753 -0.633228
thorax 1.39137 -6.28486 5.5158
lowerneck -6.97478 19.7138 2.89749
upperneck 16.8351 29.5969 -13.5875
head 8.96764 13.0991 -1.48634
rclavicle 6.2816e-014 5.725e-014
rhumerus 24.4279 -21.4205 -64.7179
rradius 98.6851
rwrist -15.0544
rhand -63.0154 18.9028
rfingers 7.12502
rthumb -35.0175 -7.64917
lclavicle 6.2816e-014 5.725e-014
lhumerus 104.08 -47.3964 48.805
lradius 30.0419
lwrist 0.918081
lhand -17.3846 7.28221
lfingers 7.12502
lthumb -171.136 217.076
rfemur -38.8731 10.1989 20.7061
rtibia 31.1109
rfoot -4.98942 16.8284
rtoes 12.6661
lfemur -19.1976 25.0839 -4.12273
ltibia 34.3455
lfoot -7.16041 24.2335
ltoes -14.5032
281
root -6.01753 17.7926 1.82757 6.03576 53.6022 -12.3508
lowerback 4.81364 -9.0321 -10.6639
upperback 2.04269 -12.4111 -0.330805
thorax 1.65056 -6.32836 5.63082
lowerneck -7.33344 19.452 2.96284
upperneck 17.1871 29.2994 -13.559
head 9.13052 12.9218 -1.47637
rclavicle -3.02153e-014 5.08889e-014
rhumerus 23.9513 -20.9628 -65.4108
rradius 98.1292
rwrist -16.2138
rhand -63.0856 18.2306
rfingers 7.12502
rthumb -35.0841 -8.30576
lclavicle -3.02153e-014 5.08889e-014
lhumerus 102.925 -48.0198 49.6107
lradius 29.5882
lwrist 0.86032
lhand -16.9942 7.71366
lfingers 7.12502
lthumb -170.759 217.491
rfemur -39.3971 9.53863 20.3346
rtibia 31.2394
rfoot -5.15853 15.7165
rtoes 11.3429
lfemur -20.539 24.9559 -4.85441
ltibia 34.2347
lfoot -8.24064 24.1744
ltoes -11.4747
282
root -6.02934 17.7872 1.74883 5.86698 55.3006 -12.9038
lowerback 4.80729 -9.15442 -10.1676
upperback 2.18368 -12.552 0.0662168
thorax 1.81144 -6.41604 5.75679
lowerneck -7.24507 19.2067 3.05355
upperneck 17.2527 28.9979 -13.7276
head 9.15354 12.7787 -1.58537
rclavicle -3.33958e-014 -3.18055e-015
rhumerus 23.386 -20.3007 -66.1028
rradius 97.6498
rwrist -17.8472
rhand -63.1483 17.8433
rfingers 7.12502
rthumb -35.1436 -8.67915
lclavicle -3.33958e-014 -3.18055e-015
lhumerus 101.198 -48.7496 51.1069
lradius 28.7739
lwrist 0.352529
lhand -16.5941 8.09016
lfingers 7.12502
lthumb -170.373 217.85
rfemur -39.8509 8.88892 20.1114
rtibia 31.3559
rfoot -5.71544 14.4044
rtoes 7.66931
lfemur -21.9129 24.7218 -5.40081
ltibia 34.1317
lfoot -8.97975 23.9296
ltoes -8.58829
283
root -6.04227 17.7812 1.66697 5.52067 57.1096 -13.6546
lowerback 4.78176 -9.26917 -9.62711
upperback 2.33604 -12.682 0.561336
thorax 2.00578 -6.50136 5.95449
lowerneck -7.32592 18.9379 3.10015
upperneck 17.4549 28.6883 -13.8326
head 9.23519 12.6147 -1.65113
rclavicle -1.53462e-013 1.59028e-014
rhumerus 22.7989 -19.5942 -66.6348
rradius 97.2905
rwrist -19.2178
rhand -63.4056 18.262
rfingers 7.12502
rthumb -35.3876 -8.20261
lclavicle -1.53462e-013 1.59028e-014
lhumerus 99.6118 -49.3171 52.3929
lradius 27.929
lwrist -0.142177
lhand -16.5883 8.34711
lfingers 7.12502
lthumb -170.367 218.107
rfemur -40.2768 8.39483 19.8547
rtibia 31.4315
rfoot -6.14846 12.8264
rtoes 4.32163
lfemur -23.3966 24.4759 -5.91469
ltibia 34.0506
lfoot -9.2047 23.7084
ltoes -8.06936
284
root -6.05666 17.78 1.58629 5.18656 58.9835 -14.3045
lowerback 4.69812 -9.277 -9.17451
upperback 2.58118 -12.6623 1.00561
thorax 2.31162 -6.51827 6.13157
lowerneck -7.64162 18.5373 3.19697
upperneck 17.8374 28.1955 -13.7959
head 9.38671 12.3539 -1.68112
rclavicle 2.54444e-014 -6.36111e-015
rhumerus 22.1614 -19.3824 -67.6441
rradius 95.9567
rwrist -19.6827
rhand -63.3738 19.8018
rfingers 7.12502
rthumb -35.3574 -6.67003
lclavicle 2.54444e-014 -6.36111e-015
lhumerus 98.8186 -49.8435 52.7326
lradius 27.3898
lwrist -0.131603
lhand -16.5231 9.13321
lfingers 7.12502
lthumb -170.304 218.89
rfemur -40.5994 7.9316 19.4461
rtibia 31.4687
rfoot -6.39363 11.209
rtoes 2.39218
lfemur -24.8234 24.2013 -6.51095
ltibia 33.9817
lfoot -9.27331 23.3118
ltoes -8.92305
